<svg width="143" height="107" viewBox="0 0 143 107" fill="none" xmlns="http://www.w3.org/2000/svg">
<path d="M39 40.6404C41 30.002 49.5 12.5 67.5 12.1404C57.5 16 48 23.5 39 40.6404Z" fill="#F24236"/>
<path d="M115 93.5C103.5 92.0621 78.5 90 56.9998 91.0001C67.3996 86.6002 96.9998 87.5001 110.5 88.5V66.0001C109.3 62.0002 77.6667 60.3334 62 60C84.4 58.8 95 50 98.5 44.5C99 48 93.1667 54.8333 90 58H100C103.6 58.4 112 49.5 115 44.5C114.5 50 109.333 57.1667 106.5 60C150.5 66.0001 151 -3 97.5 10L103.5 21C80.5 -8.5 38.5 7.50013 37 40.5C34.6002 33.3 36.0001 24.5 37 21C-13 21 4.5 81 34 69.5V64.5C28 63.9167 23 56.5 21.5 53C26.3 60.2 43.5 61 52 60C49.5 62.5 43.9998 63.8333 39.9998 64.5V78.5C52.5 75.5 65.1666 77.1667 75 78.5C69.5 78.5 49.6667 81 38.5 84L35.5 94L34.4998 74C-18.0001 81 -5 4 39.9998 18.5C57.5998 -7.49999 84.3331 0.333419 95.4998 7.50012C144 -14 162.5 57.5 115 66.0001C115.5 76.3335 115.687 93.5859 115 93.5Z" fill="black"/>
<path d="M46.5 90.5C50.366 90.5 53.5 93.634 53.5 97.5C53.5 101.366 50.366 104.5 46.5 104.5C42.634 104.5 39.5 101.366 39.5 97.5C39.5 93.634 42.634 90.5 46.5 90.5Z" stroke="black" stroke-width="5"/>
<path d="M112.5 97C112.5 101.142 109.254 104.5 105.25 104.5C101.246 104.5 98 101.142 98 97" stroke="#F24236" stroke-width="5"/>
</svg>
